<?xml version="1.0" encoding="UTF-8" standalone="no"?>
<svg
   height="546.35327"
   width="3032.9834"
   xml:space="preserve"
   y="0"
   x="0"
   id="Layer_1"
   version="1.1"
   viewBox="-45.10065 -44.95 987.9243 184.18935"
   sodipodi:docname="gcp.svg"
   inkscape:version="1.1.1 (3bf5ae0d25, 2021-09-20)"
   xmlns:inkscape="http://www.inkscape.org/namespaces/inkscape"
   xmlns:sodipodi="http://sodipodi.sourceforge.net/DTD/sodipodi-0.dtd"
   xmlns:xlink="http://www.w3.org/1999/xlink"
   xmlns="http://www.w3.org/2000/svg"
   xmlns:svg="http://www.w3.org/2000/svg"><defs
     id="defs11"><linearGradient
       y2="120.789"
       x2="64"
       y1="7.0339999"
       x1="64"
       gradientUnits="userSpaceOnUse"
       id="a-9"><stop
         offset="0"
         stop-color="#4387fd"
         id="stop2" /><stop
         offset="1"
         stop-color="#4683ea"
         id="stop4-1" /></linearGradient><clipPath
       id="c"><use
         height="100%"
         width="100%"
         xlink:href="#b-0"
         overflow="visible"
         id="use14"
         x="0"
         y="0" /></clipPath><clipPath
       clipPathUnits="userSpaceOnUse"
       id="clipPath1892"><path
         style="fill:none;stroke:#000000;stroke-width:0.0573264px;stroke-linecap:butt;stroke-linejoin:miter;stroke-opacity:1"
         d="M -4.8506974e-7,13.564797 4.9995987,4.8931985 10.835554,-1.7422075e-4 10.836672,2.8439065e-4 19.682095,15.244908 4.5077964,15.242907 Z"
         id="path1894" /></clipPath><path
       d="M 27.791,115.217 1.541,69.749 a 11.499,11.499 0 0 1 0,-11.499 l 26.25,-45.467 a 11.499,11.499 0 0 1 9.959,-5.75 h 52.5 a 11.5,11.5 0 0 1 9.96,5.75 l 26.25,45.467 a 11.499,11.499 0 0 1 0,11.5 l -26.25,45.466 a 11.5,11.5 0 0 1 -9.96,5.75 h -52.5 a 11.499,11.499 0 0 1 -9.959,-5.75 z"
       id="path620" /></defs><sodipodi:namedview
     id="namedview9"
     pagecolor="#ffffff"
     bordercolor="#666666"
     borderopacity="1.0"
     inkscape:pageshadow="2"
     inkscape:pageopacity="0.0"
     inkscape:pagecheckerboard="true"
     showgrid="false"
     inkscape:zoom="0.25"
     inkscape:cx="1714"
     inkscape:cy="-350"
     inkscape:window-width="1920"
     inkscape:window-height="991"
     inkscape:window-x="-9"
     inkscape:window-y="-9"
     inkscape:window-maximized="1"
     inkscape:current-layer="Layer_1"
     fit-margin-top="200"
     fit-margin-left="200"
     fit-margin-right="200"
     fit-margin-bottom="50"
     lock-margins="true" /><style
     id="style1855"
     type="text/css">.st1{fill-rule:evenodd;clip-rule:evenodd;fill:#f90}</style><g
     id="g120"
     transform="translate(9.6713758)"><g
       transform="matrix(0.46519733,0,0,0.55566235,-3.1284662,21.863774)"
       id="g1865"><path
         id="path1857"
         d="m 86.4,66.4 c 0,3.7 0.4,6.7 1.1,8.9 0.8,2.2 1.8,4.6 3.2,7.2 0.5,0.8 0.7,1.6 0.7,2.3 0,1 -0.6,2 -1.9,3 L 83.2,92 c -0.9,0.6 -1.8,0.9 -2.6,0.9 -1,0 -2,-0.5 -3,-1.4 C 76.2,90 75,88.4 74,86.8 73,85.1 72,83.2 70.9,80.9 63.1,90.1 53.3,94.7 41.5,94.7 c -8.4,0 -15.1,-2.4 -20,-7.2 -4.9,-4.8 -7.4,-11.2 -7.4,-19.2 0,-8.5 3,-15.4 9.1,-20.6 6.1,-5.2 14.2,-7.8 24.5,-7.8 3.4,0 6.9,0.3 10.6,0.8 3.7,0.5 7.5,1.3 11.5,2.2 V 35.6 C 69.8,28 68.2,22.7 65.1,19.6 61.9,16.5 56.5,15 48.8,15 c -3.5,0 -7.1,0.4 -10.8,1.3 -3.7,0.9 -7.3,2 -10.8,3.4 -1.6,0.7 -2.8,1.1 -3.5,1.3 -0.7,0.2 -1.2,0.3 -1.6,0.3 -1.4,0 -2.1,-1 -2.1,-3.1 V 13.3 C 20,11.7 20.2,10.5 20.7,9.8 21.2,9.1 22.1,8.4 23.5,7.7 27,5.9 31.2,4.4 36.1,3.2 41,1.9 46.2,1.3 51.7,1.3 63.6,1.3 72.3,4 77.9,9.4 83.4,14.8 86.2,23 86.2,34 V 66.4 Z M 45.8,81.6 c 3.3,0 6.7,-0.6 10.3,-1.8 3.6,-1.2 6.8,-3.4 9.5,-6.4 1.6,-1.9 2.8,-4 3.4,-6.4 0.6,-2.4 1,-5.3 1,-8.7 v -4.2 c -2.9,-0.7 -6,-1.3 -9.2,-1.7 -3.2,-0.4 -6.3,-0.6 -9.4,-0.6 -6.7,0 -11.6,1.3 -14.9,4 -3.3,2.7 -4.9,6.5 -4.9,11.5 0,4.7 1.2,8.2 3.7,10.6 2.4,2.5 5.9,3.7 10.5,3.7 z m 80.3,10.8 c -1.8,0 -3,-0.3 -3.8,-1 -0.8,-0.6 -1.5,-2 -2.1,-3.9 L 96.7,10.2 c -0.6,-2 -0.9,-3.3 -0.9,-4 0,-1.6 0.8,-2.5 2.4,-2.5 h 9.8 c 1.9,0 3.2,0.3 3.9,1 0.8,0.6 1.4,2 2,3.9 l 16.8,66.2 15.6,-66.2 c 0.5,-2 1.1,-3.3 1.9,-3.9 0.8,-0.6 2.2,-1 4,-1 h 8 c 1.9,0 3.2,0.3 4,1 0.8,0.6 1.5,2 1.9,3.9 l 15.8,67 17.3,-67 c 0.6,-2 1.3,-3.3 2,-3.9 0.8,-0.6 2.1,-1 3.9,-1 h 9.3 c 1.6,0 2.5,0.8 2.5,2.5 0,0.5 -0.1,1 -0.2,1.6 -0.1,0.6 -0.3,1.4 -0.7,2.5 l -24.1,77.3 c -0.6,2 -1.3,3.3 -2.1,3.9 -0.8,0.6 -2.1,1 -3.8,1 h -8.6 c -1.9,0 -3.2,-0.3 -4,-1 -0.8,-0.7 -1.5,-2 -1.9,-4 L 156,23 140.6,87.4 c -0.5,2 -1.1,3.3 -1.9,4 -0.8,0.7 -2.2,1 -4,1 z m 128.5,2.7 c -5.2,0 -10.4,-0.6 -15.4,-1.8 -5,-1.2 -8.9,-2.5 -11.5,-4 -1.6,-0.9 -2.7,-1.9 -3.1,-2.8 -0.4,-0.9 -0.6,-1.9 -0.6,-2.8 v -5.1 c 0,-2.1 0.8,-3.1 2.3,-3.1 0.6,0 1.2,0.1 1.8,0.3 0.6,0.2 1.5,0.6 2.5,1 3.4,1.5 7.1,2.7 11,3.5 4,0.8 7.9,1.2 11.9,1.2 6.3,0 11.2,-1.1 14.6,-3.3 3.4,-2.2 5.2,-5.4 5.2,-9.5 0,-2.8 -0.9,-5.1 -2.7,-7 -1.8,-1.9 -5.2,-3.6 -10.1,-5.2 L 246,52 c -7.3,-2.3 -12.7,-5.7 -16,-10.2 -3.3,-4.4 -5,-9.3 -5,-14.5 0,-4.2 0.9,-7.9 2.7,-11.1 1.8,-3.2 4.2,-6 7.2,-8.2 3,-2.3 6.4,-4 10.4,-5.2 4,-1.2 8.2,-1.7 12.6,-1.7 2.2,0 4.5,0.1 6.7,0.4 2.3,0.3 4.4,0.7 6.5,1.1 2,0.5 3.9,1 5.7,1.6 1.8,0.6 3.2,1.2 4.2,1.8 1.4,0.8 2.4,1.6 3,2.5 0.6,0.8 0.9,1.9 0.9,3.3 v 4.7 c 0,2.1 -0.8,3.2 -2.3,3.2 -0.8,0 -2.1,-0.4 -3.8,-1.2 -5.7,-2.6 -12.1,-3.9 -19.2,-3.9 -5.7,0 -10.2,0.9 -13.3,2.8 -3.1,1.9 -4.7,4.8 -4.7,8.9 0,2.8 1,5.2 3,7.1 2,1.9 5.7,3.8 11,5.5 l 14.2,4.5 c 7.2,2.3 12.4,5.5 15.5,9.6 3.1,4.1 4.6,8.8 4.6,14 0,4.3 -0.9,8.2 -2.6,11.6 -1.8,3.4 -4.2,6.4 -7.3,8.8 -3.1,2.5 -6.8,4.3 -11.1,5.6 -4.5,1.4 -9.2,2.1 -14.3,2.1 z"
         fill="#252f3e" /><g
         id="g1863"><path
           id="path1859"
           d="M 273.5,143.7 C 240.6,168 192.8,180.9 151.7,180.9 94.1,180.9 42.2,159.6 3,124.2 c -3.1,-2.8 -0.3,-6.6 3.4,-4.4 42.4,24.6 94.7,39.5 148.8,39.5 36.5,0 76.6,-7.6 113.5,-23.2 5.5,-2.5 10.2,3.6 4.8,7.6 z"
           class="st1" /><path
           id="path1861"
           d="m 287.2,128.1 c -4.2,-5.4 -27.8,-2.6 -38.5,-1.3 -3.2,0.4 -3.7,-2.4 -0.8,-4.5 18.8,-13.2 49.7,-9.4 53.3,-5 3.6,4.5 -1,35.4 -18.6,50.2 -2.7,2.3 -5.3,1.1 -4.1,-1.9 4,-9.9 12.9,-32.2 8.7,-37.5 z"
           class="st1" /></g></g><g
       fill="#f7981f"
       id="g8"
       transform="matrix(1.7131311,0,0,1.6772389,213.36432,22.475003)"><path
         d="m 24.879,56.565 c 0,1.657 1.345,3.002 3.002,3.002 h 27.436 c 1.658,0 3.002,-1.345 3.002,-3.002 V 28.46 c 0,-1.658 -1.344,-3.002 -3.002,-3.002 H 27.881 c -1.657,0 -3.002,1.344 -3.002,3.002 z"
         id="path2" /><path
         d="m 22.232,25.846 c 0,-1.658 1.345,-3.002 3.002,-3.002 H 45.8 v -7.145 c 0,-1.658 -1.344,-3.002 -3.001,-3.002 H 15.365 c -1.658,0 -3.002,1.344 -3.002,3.002 v 28.104 c 0,1.658 1.344,3.002 3.002,3.002 h 6.867 z"
         id="path4" /><path
         d="m 9.87,13.149 c 0,-1.658 1.344,-3.002 3.002,-3.002 H 33.438 V 3.002 C 33.438,1.344 32.093,0 30.436,0 H 3.002 C 1.344,0 0,1.344 0,3.002 v 28.105 c 0,1.657 1.344,3.002 3.002,3.002 H 9.87 Z"
         id="path6" /></g><g
       id="g1392"
       transform="matrix(0.0700469,0,0,0.07450763,389.11793,22.475044)"><g
         transform="translate(0.008,-0.004)"
         id="g730"><g
           id="g710"><path
             id="path702"
             d="m 1057.1,369.2 h 50.8 l 144.8,-144.8 7.1,-61.5 C 990.3,-75 579,-49.3 341.1,220.2 275,295 227.1,384.1 200.9,480.5 c 16.1,-6.6 34,-7.7 50.8,-3 l 289.6,-47.8 c 0,0 14.7,-24.4 22.4,-22.9 128.8,-141.5 345.6,-158 494.4,-37.6 z"
             fill="#ea4335" /><path
             id="path704"
             d="m 1459,480.5 c -33.3,-122.6 -101.6,-232.8 -196.6,-317 l -203.2,203.2 c 85.8,70.1 134.7,175.8 132.6,286.6 v 36.1 c 99.9,0 180.9,81 180.9,180.9 0,99.9 -81,180.9 -180.9,180.9 H 830 l -36.1,36.6 v 217 l 36.1,36.1 h 361.8 c 259.8,2 472.1,-207 474.1,-466.8 1.2,-157.8 -76.5,-305.4 -206.9,-393.6 z"
             fill="#4285f4" /><path
             id="path706"
             d="M 467.7,1338.6 H 829.5 V 1049 H 467.7 c -25.8,0 -51.2,-5.6 -74.7,-16.3 l -50.8,15.8 -145.8,144.8 -12.7,50.8 c 81.7,61.8 181.5,95 284,94.5 z"
             fill="#34a853" /><path
             id="path708"
             d="M 467.7,399.2 C 207.8,400.7 -1.5,612.6 0,872.5 c 0.9,145.1 68.6,281.7 183.7,370.1 L 393.5,1032.8 C 302.5,991.7 262,884.5 303.1,793.5 c 41.1,-91 148.3,-131.5 239.3,-90.4 40.1,18.1 72.2,50.3 90.4,90.4 L 842.6,583.7 C 753.4,466.9 614.6,398.6 467.7,399.2 Z"
             fill="#fbbc05" /></g><g
           id="g728"><g
             id="g714" /><g
             id="g726" /></g></g></g><g
       id="g47"
       transform="matrix(0.90541393,0,0,0.87690208,581.65662,22.475882)"><g
         transform="translate(0,-7.034)"
         id="g9"><linearGradient
           y2="120.789"
           x2="64"
           y1="7.0339999"
           x1="64"
           gradientUnits="userSpaceOnUse"
           id="linearGradient99"><stop
             offset="0"
             stop-color="#4387fd"
             id="stop95" /><stop
             offset="1"
             stop-color="#4683ea"
             id="stop97" /></linearGradient><path
           d="M 27.79,115.217 1.54,69.749 a 11.499,11.499 0 0 1 0,-11.499 L 27.79,12.783 a 11.5,11.5 0 0 1 9.96,-5.75 h 52.5 a 11.5,11.5 0 0 1 9.959,5.75 l 26.25,45.467 a 11.499,11.499 0 0 1 0,11.5 l -26.25,45.466 a 11.5,11.5 0 0 1 -9.959,5.75 h -52.5 a 11.499,11.499 0 0 1 -9.96,-5.75 z"
           fill="url(#a)"
           id="path7"
           style="fill:url(#a-9)" /></g><g
         transform="translate(0,-7.034)"
         id="g19"><defs
           id="defs12"><path
             d="M 27.791,115.217 1.541,69.749 a 11.499,11.499 0 0 1 0,-11.499 l 26.25,-45.467 a 11.499,11.499 0 0 1 9.959,-5.75 h 52.5 a 11.5,11.5 0 0 1 9.96,5.75 l 26.25,45.467 a 11.499,11.499 0 0 1 0,11.5 l -26.25,45.466 a 11.5,11.5 0 0 1 -9.96,5.75 h -52.5 a 11.499,11.499 0 0 1 -9.959,-5.75 z"
             id="path221" /></defs><clipPath
           id="clipPath107"><use
             height="100%"
             width="100%"
             xlink:href="#b-0"
             overflow="visible"
             id="use105"
             x="0"
             y="0" /></clipPath><path
           clip-path="url(#c)"
           opacity="0.07"
           d="m 72.531,46.25 -6.75,-6.75 -3.125,6.687 -6.671,-6.671 -1.641,8.088 -5.938,1.02 -1.232,5.282 -7.683,1.835 6.884,6.884 -6.81,3.033 6.81,6.81 -6.854,2.928 46.682,46.682 11.464,-0.037 L 119.219,83.115 75.635,39.53 Z"
           id="path17" /></g><g
         fill="#ffffff"
         id="g25"><path
           d="M 69.831,50.062 H 58.422 c -0.668,0 -1.215,0.547 -1.215,1.214 l 10e-4,11.407 a 1.22,1.22 0 0 0 1.214,1.215 H 69.83 a 1.22,1.22 0 0 0 1.215,-1.215 V 51.276 c 0,-0.667 -0.546,-1.214 -1.213,-1.214"
           id="path21" /><path
           d="m 87.89,49.142 c 0.6,0 1.09,-0.492 1.09,-1.09 v -1.776 c 0,-0.598 -0.49,-1.09 -1.09,-1.09 H 82.34 V 40 a 1.22,1.22 0 0 0 -1.213,-1.213 h -5.209 l 10e-4,-5.57 c 0,-0.597 -0.49,-1.089 -1.089,-1.089 l -1.777,10e-4 c -0.6,0 -1.09,0.491 -1.09,1.089 l 0.001,5.568 h -5.86 v -5.57 c 0,-0.596 -0.49,-1.088 -1.088,-1.088 l -1.779,10e-4 c -0.599,0 -1.089,0.491 -1.089,1.089 l 10e-4,5.568 -5.86,10e-4 v -5.571 c 0,-0.596 -0.49,-1.088 -1.088,-1.088 h -1.778 c -0.598,0 -1.09,0.492 -1.09,1.09 l 0.002,5.569 H 47.128 A 1.22,1.22 0 0 0 45.912,40 v 5.187 h -5.549 c -0.597,0 -1.088,0.492 -1.088,1.09 l 0.001,1.778 c 0,0.598 0.49,1.088 1.088,1.088 h 5.548 l 0.002,5.86 h -5.55 c -0.598,0 -1.089,0.49 -1.089,1.088 l 0.001,1.777 c 0,0.6 0.49,1.09 1.088,1.09 h 5.55 v 5.86 l -5.55,-0.001 c -0.598,0 -1.089,0.491 -1.089,1.089 l 0.001,1.777 c 0,0.6 0.49,1.089 1.088,1.089 h 5.55 v 5.19 c 0,0.665 0.547,1.213 1.213,1.213 h 5.208 v 5.567 c 0,0.6 0.49,1.09 1.089,1.09 H 55.2 c 0.598,0 1.088,-0.49 1.088,-1.09 l 0.001,-5.567 h 5.859 l 10e-4,5.567 c 0,0.6 0.49,1.09 1.09,1.09 h 1.776 c 0.598,0 1.088,-0.49 1.088,-1.09 l 0.001,-5.567 h 5.859 l 0.001,5.567 c 0,0.6 0.49,1.09 1.09,1.09 h 1.775 c 0.599,0 1.09,-0.49 1.09,-1.09 v -5.567 h 5.206 a 1.22,1.22 0 0 0 1.214,-1.214 l 0.001,-5.189 5.55,-0.001 c 0.599,0 1.089,-0.489 1.089,-1.088 v -1.775 c 0,-0.6 -0.49,-1.09 -1.09,-1.09 h -5.548 v -5.86 l 5.549,-0.002 c 0.6,0 1.09,-0.488 1.09,-1.088 v -1.775 c 0,-0.6 -0.49,-1.09 -1.09,-1.09 h -5.55 v -5.86 h 5.55 z M 78.243,71.097 H 50.009 V 42.862 l 28.236,-0.001 z"
           id="path23" /></g></g><path
       d="m 9.1054,14.4308 a 3735.905,3735.905 0 0 0 4.6413,-0.8214 l 0.0436,-0.0093 -2.3874,-2.8397 C 10.0899,9.1986 9.0156,7.9147 9.0156,7.9074 c 0,-0.014 2.4651,-6.8025 2.479,-6.8267 0.0046,-0.008 1.6822,2.8883 4.0666,7.021 2.2323,3.869 4.0727,7.059 4.0898,7.0889 l 0.0311,0.0543 -7.5871,-10e-4 -7.5872,-10e-4 z M 38.2013,13.744 C 37.0463,13.67 36.3747,13.0124 36.1967,11.7814 36.1493,11.454 36.1491,11.4454 36.1443,9.3197 L 36.1396,7.2622 h 1.0223 l 0.004,1.99 c 0.0036,1.7937 0.0059,2.004 0.023,2.1301 0.0696,0.5121 0.2082,0.8565 0.444,1.1036 0.1888,0.1978 0.4098,0.3137 0.7157,0.3751 0.1444,0.029 0.555,0.029 0.6865,10e-5 0.3101,-0.0682 0.5587,-0.2032 0.778,-0.4224 0.25,-0.2498 0.4348,-0.6043 0.5243,-1.005 l 0.0301,-0.1352 0.0034,-2.0069 0.0033,-2.0069 h 1.0437 v 6.3098 H 40.385 V 13.094 c 0,-0.3401 -0.0037,-0.4994 -0.0116,-0.4967 -0.0064,0.0021 -0.033,0.0427 -0.059,0.0902 -0.178,0.3245 -0.4745,0.6214 -0.7994,0.8002 -0.3895,0.2143 -0.78,0.2906 -1.3137,0.2564 z m 11.7224,-0.005 c -0.4077,-0.0307 -0.837,-0.1709 -1.1878,-0.388 -0.7395,-0.4573 -1.177,-1.2113 -1.3052,-2.249 -0.0443,-0.359 -0.0496,-0.8414 -0.0126,-1.1465 0.0826,-0.6817 0.3505,-1.351 0.732,-1.8288 0.0978,-0.1224 0.3197,-0.3443 0.4421,-0.442 A 2.7544,2.7544 0 0 1 49.7206,7.146 c 0.2393,-0.0523 0.6608,-0.0769 0.915,-0.0533 0.6388,0.0592 1.2242,0.3599 1.622,0.8332 0.4043,0.481 0.6265,1.153 0.6549,1.9804 0.0044,0.1297 0.0055,0.357 0.0024,0.5052 l -0.0057,0.2695 -2.237,0.0028 -2.2371,0.0028 v 0.0999 c 0,0.3039 0.0738,0.65 0.2016,0.9445 0.1101,0.254 0.2997,0.5313 0.455,0.6655 0.3183,0.2752 0.7078,0.4399 1.1341,0.4795 0.158,0.0147 0.561,-8e-4 0.741,-0.0285 0.514,-0.079 1.0025,-0.2805 1.397,-0.5763 a 3.4082,3.4082 0 0 1 0.0988,-0.0723 c 0.0115,-0.0072 0.0143,0.0837 0.014,0.466 l -4e-4,0.4749 -0.1057,0.0654 c -0.4464,0.276 -0.9577,0.4533 -1.499,0.5196 -0.1617,0.0198 -0.7545,0.0287 -0.9478,0.0141 z m 1.947,-4.0055 c 0,-0.5091 -0.2146,-1.0746 -0.5182,-1.3658 C 51.1359,8.1599 50.874,8.0329 50.5626,7.9847 50.4153,7.9619 50.1049,7.9707 49.9496,8.002 49.6213,8.0684 49.3498,8.2127 49.1129,8.4467 48.8637,8.693 48.6768,8.9922 48.5593,9.333 48.517,9.4556 48.4676,9.6568 48.4523,9.7688 l -0.0074,0.0533 h 3.4257 z m -30.3454,3.847 c 0.0026,-0.0078 0.7623,-2.0034 1.6881,-4.4348 l 1.6834,-4.4208 h 1.0817 l 0.0449,0.115 c 0.1371,0.3517 3.37,8.745 3.37,8.7494 0,0.0028 -0.259,0.0052 -0.5754,0.0051 l -0.5754,-10e-5 -0.466,-1.2405 -0.466,-1.2406 h -3.752 l -0.0164,0.0421 c -0.009,0.0232 -0.208,0.5814 -0.4424,1.2404 l -0.426,1.1984 -0.5767,2e-4 c -0.4564,10e-5 -0.5756,-0.0028 -0.5718,-0.0139 z m 5.443,-3.414 c 0,-0.002 -0.3136,-0.852 -0.6969,-1.889 -0.717,-1.94 -0.757,-2.0567 -0.8137,-2.3682 -0.0265,-0.146 -0.04,-0.15 -0.0558,-0.0168 -0.0112,0.0952 -0.06,0.3084 -0.0978,0.4266 -0.0187,0.0587 -0.3415,0.9448 -0.7174,1.9693 -0.376,1.0244 -0.6835,1.8668 -0.6835,1.8721 0,0.0053 0.6896,0.0096 1.5325,0.0096 0.8429,0 1.5325,-0.0016 1.5325,-0.0035 z m 2.7731,3.2664 V 13.2714 L 31.6106,10.7019 33.4797,8.1324 31.7874,8.1267 30.0951,8.1211 30.0921,7.6917 30.0892,7.2622 h 4.8954 v 0.2901 l -1.8693,2.5835 c -1.0282,1.421 -1.8694,2.586 -1.8694,2.5889 0,0.0029 0.8311,0.0053 1.8469,0.0053 h 1.8469 v 0.8645 H 29.7414 Z M 43.4576,13.587 C 43.4535,13.5829 43.4501,12.1581 43.4501,10.4209 V 7.2622 h 1.0217 v 0.6512 c 0,0.3582 0.0043,0.6512 0.0097,0.6512 0.0053,0 0.0301,-0.0586 0.0552,-0.1303 0.1149,-0.3283 0.314,-0.6351 0.5707,-0.879 0.2311,-0.2196 0.4953,-0.351 0.8071,-0.4013 0.0876,-0.014 0.1617,-0.0168 0.3368,-0.0122 0.22,0.0057 0.335,0.0218 0.4688,0.0655 l 0.042,0.0138 V 8.2816 L 46.6415,8.2212 C 46.4283,8.1145 46.2179,8.0722 45.965,8.0854 45.8004,8.0939 45.6924,8.1151 45.5608,8.1644 a 1.2788,1.2788 0 0 0 -0.6437,0.5258 c -0.2222,0.3544 -0.3806,0.8099 -0.4273,1.2286 -0.0084,0.0751 -0.0133,0.687 -0.0153,1.8933 l -0.003,1.7824 h -0.5032 c -0.2768,0 -0.5066,-0.0034 -0.5107,-0.0075 z M 0,13.5648 C 0,13.5608 1.1249,11.6081 2.4998,9.2254 L 4.9996,4.8932 7.9128,2.4485 C 9.515,1.1039 10.8303,0.002 10.8356,0 10.8408,-0.002 10.8198,0.051 10.7887,0.1178 10.7577,0.1847 9.3342,3.2379 7.6254,6.9028 l -3.107,6.6635 -2.2592,0.0029 C 1.0167,13.5708 0,13.5688 0,13.5648 Z"
       fill="#0089d6"
       id="path2-3"
       clip-path="url(#clipPath1892)"
       transform="matrix(5.6852212,0,0,6.5535186,773.39495,22.475359)" /></g></svg>
