<?xml version="1.0" encoding="UTF-8" standalone="no"?>
<!-- Created with Inkscape (http://www.inkscape.org/) -->

<svg
   width="2585.2808"
   height="546"
   viewBox="0 0 1231.24 260.03252"
   version="1.1"
   id="svg5"
   inkscape:version="1.1.1 (3bf5ae0d25, 2021-09-20)"
   sodipodi:docname="office.svg"
   xmlns:inkscape="http://www.inkscape.org/namespaces/inkscape"
   xmlns:sodipodi="http://sodipodi.sourceforge.net/DTD/sodipodi-0.dtd"
   xmlns="http://www.w3.org/2000/svg"
   xmlns:svg="http://www.w3.org/2000/svg">
  <sodipodi:namedview
     id="namedview7"
     pagecolor="#ffffff"
     bordercolor="#666666"
     borderopacity="1.0"
     inkscape:pageshadow="2"
     inkscape:pageopacity="0.0"
     inkscape:pagecheckerboard="true"
     inkscape:document-units="mm"
     showgrid="false"
     units="px"
     fit-margin-top="200"
     fit-margin-left="200"
     fit-margin-right="200"
     fit-margin-bottom="50"
     inkscape:zoom="0.17865947"
     inkscape:cx="1514.0535"
     inkscape:cy="-58.771024"
     inkscape:window-width="1920"
     inkscape:window-height="991"
     inkscape:window-x="-9"
     inkscape:window-y="-9"
     inkscape:window-maximized="1"
     inkscape:current-layer="layer1"
     lock-margins="false"
     scale-x="1.8"
     borderlayer="false"
     height="547.49872px"
     width="2485.2808px" />
  <defs
     id="defs2">
    <linearGradient
       gradientTransform="matrix(0.08063492,0,0,-0.08063492,-47.702624,135.89388)"
       y2="333.08801"
       x2="795.29401"
       y1="1420.912"
       x1="167.20599"
       gradientUnits="userSpaceOnUse"
       id="a">
      <stop
         offset="0"
         stop-color="#2368c4"
         id="stop18" />
      <stop
         offset=".5"
         stop-color="#1a5dbe"
         id="stop20" />
      <stop
         offset="1"
         stop-color="#1146ac"
         id="stop22" />
    </linearGradient>
    <linearGradient
       gradientTransform="matrix(1,0,0,-1,0,2132)"
       y2="404.98199"
       x2="967.987"
       y1="1729.0179"
       x1="203.513"
       gradientUnits="userSpaceOnUse"
       id="a-2">
      <stop
         offset="0"
         stop-color="#18884f"
         id="stop16" />
      <stop
         offset=".5"
         stop-color="#117e43"
         id="stop18-6" />
      <stop
         offset="1"
         stop-color="#0b6631"
         id="stop20-8" />
    </linearGradient>
    <linearGradient
       gradientTransform="matrix(1,0,0,-1,0,1788)"
       y2="339.89899"
       x2="811.65503"
       y1="1450.101"
       x1="170.645"
       gradientUnits="userSpaceOnUse"
       id="a-25">
      <stop
         offset="0"
         stop-color="#ca4c28"
         id="stop16-5" />
      <stop
         offset=".5"
         stop-color="#c5401e"
         id="stop18-60" />
      <stop
         offset="1"
         stop-color="#b62f14"
         id="stop20-2" />
    </linearGradient>
    <linearGradient
       gradientTransform="matrix(1,0,0,-1,-917.50767,1705.333)"
       y2="1.998"
       x2="1128.458"
       y1="811.08301"
       x1="1128.458"
       gradientUnits="userSpaceOnUse"
       id="a-20">
      <stop
         offset="0"
         stop-color="#35b8f1"
         id="stop18-2" />
      <stop
         offset="1"
         stop-color="#28a8ea"
         id="stop20-5" />
    </linearGradient>
    <linearGradient
       gradientTransform="matrix(1,0,0,-1,-917.50767,1705.333)"
       y2="324.259"
       x2="774.086"
       y1="1383.074"
       x1="162.74699"
       gradientUnits="userSpaceOnUse"
       id="b">
      <stop
         offset="0"
         stop-color="#1784d9"
         id="stop43" />
      <stop
         offset=".5"
         stop-color="#107ad5"
         id="stop45" />
      <stop
         offset="1"
         stop-color="#0a63c9"
         id="stop47" />
    </linearGradient>
    <radialGradient
       gradientUnits="userSpaceOnUse"
       gradientTransform="translate(0,406)"
       r="143.43201"
       cy="-324.71301"
       cx="97.710999"
       id="a-1">
      <stop
         offset="0"
         stop-color="#1d0f0b"
         stop-opacity=".85"
         id="stop4" />
      <stop
         offset=".767"
         stop-color="#1d0f0b"
         id="stop6" />
    </radialGradient>
    <linearGradient
       gradientTransform="translate(0,406)"
       y2="-290"
       x2="206.38901"
       y1="-290"
       x1="37.632"
       gradientUnits="userSpaceOnUse"
       id="b-4">
      <stop
         offset=".14"
         stop-color="#fff"
         id="stop11" />
      <stop
         offset="1"
         stop-color="#ebedeb"
         id="stop13" />
    </linearGradient>
  </defs>
  <g
     inkscape:label="Layer 1"
     inkscape:groupmode="layer"
     id="layer1"
     transform="translate(602.52463,243.55248)">
    <g
       id="g209">
      <g
         id="g62"
         transform="matrix(1,0,0,0.99900005,429.47348,-142.92935)"
         style="image-rendering:optimizeQuality">
        <path
           d="M 97.525382,-5.3784976 H -5.9584097 c -3.5713206,0 -6.4664373,2.8951162 -6.4664373,6.4664368 V 29.89928 L 47.547375,47.538169 103.99182,29.89928 V 1.0879392 c 0,-3.5713206 -2.89512,-6.4664368 -6.466438,-6.4664368 z"
           fill="#41a5ee"
           id="path2"
           style="stroke-width:0.0806349" />
        <path
           d="M 103.99182,29.89928 H -12.424847 V 65.177057 L 47.547375,75.760391 103.99182,65.177057 Z"
           fill="#2b7cd3"
           id="path4"
           style="stroke-width:0.0806349" />
        <path
           d="m -12.424847,65.177057 v 35.277773 l 56.444445,7.05556 59.972222,-7.05556 V 65.177057 Z"
           fill="#185abd"
           id="path6"
           style="stroke-width:0.0806349" />
        <path
           d="M -5.9584097,135.73261 H 97.525463 c 3.571317,0 6.466437,-2.89511 6.466437,-6.46643 V 100.45483 H -12.424847 v 28.81135 c 0,3.57132 2.8951167,6.46643 6.4664373,6.46643 z"
           fill="#103f91"
           id="path8"
           style="stroke-width:0.0806349" />
        <path
           d="m 30.497605,22.843724 h -42.922452 v 88.194446 h 42.922452 c 3.566483,-0.0116 6.454826,-2.89996 6.466437,-6.46644 V 29.310161 c -0.01161,-3.566482 -2.899954,-6.454825 -6.466437,-6.466437 z"
           opacity="0.1"
           id="path10"
           style="stroke-width:0.0806349" />
        <path
           d="m 26.969827,26.371502 h -39.394674 v 88.194448 h 39.394674 c 3.566483,-0.0116 6.454826,-2.89996 6.466437,-6.46644 V 32.837939 c -0.01161,-3.566483 -2.899954,-6.454825 -6.466437,-6.466437 z"
           opacity="0.2"
           id="path12"
           style="stroke-width:0.0806349" />
        <path
           d="m 26.969827,26.371502 h -39.394674 v 81.138888 h 39.394674 c 3.566483,-0.0116 6.454826,-2.89995 6.466437,-6.46644 V 32.837939 c -0.01161,-3.566483 -2.899954,-6.454825 -6.466437,-6.466437 z"
           opacity="0.2"
           id="path14"
           style="stroke-width:0.0806349" />
        <path
           d="M 23.44205,26.371502 H -12.424847 V 107.51039 H 23.44205 c 3.566482,-0.0116 6.454825,-2.89995 6.466436,-6.46644 V 32.837939 c -0.01161,-3.566483 -2.899954,-6.454825 -6.466436,-6.466437 z"
           opacity="0.2"
           id="path16"
           style="stroke-width:0.0806349" />
        <path
           d="M -41.236187,26.371502 H 23.44205 c 3.57132,0 6.466436,2.895116 6.466436,6.466437 v 64.678318 c 0,3.571323 -2.895116,6.466433 -6.466436,6.466433 h -64.678237 c -3.571321,0 -6.466437,-2.89511 -6.466437,-6.466433 V 32.837939 c 0,-3.571321 2.895116,-6.466437 6.466437,-6.466437 z"
           fill="url(#a)"
           id="path25"
           style="fill:url(#a);stroke-width:0.0806349" />
        <path
           d="m -21.166639,75.965042 c 0.127,0.998341 0.211666,1.866215 0.250452,2.610556 h 0.148126 c 0.05644,-0.705556 0.17401,-1.555771 0.352778,-2.550564 0.178767,-0.994873 0.339876,-1.835653 0.483325,-2.52234 l 6.801556,-29.344096 h 8.79477 l 7.0555555,28.903103 a 42.80279,42.80279 0 0 1 0.8784369,5.453904 H 3.7147972 A 41.809206,41.809206 0 0 1 4.448575,73.223939 L 10.07536,44.144487 h 8.004548 L 8.1950346,86.195598 H -1.157084 L -7.8598618,58.34728 C -8.0538694,57.546494 -8.2760992,56.498724 -8.5195361,55.211065 -8.7629729,53.923406 -8.9146472,52.98151 -8.9746395,52.388843 h -0.1164369 c -0.077571,0.684348 -0.2293257,1.700429 -0.4551035,3.048 -0.2257777,1.347651 -0.4068838,2.344783 -0.5433181,2.991555 l -6.300651,27.760104 h -9.510889 l -9.93769,-42.029985 h 8.149127 l 6.12777,29.404008 c 0.137644,0.60331 0.268192,1.407643 0.395192,2.402517 z"
           fill="#ffffff"
           id="path27"
           style="stroke-width:0.0806349" />
      </g>
      <g
         id="g48"
         transform="matrix(0.06624935,0,0,0.0661831,-290.23705,-148.30247)">
        <path
           d="M 1437.75,1011.75 532.5,852 v 1180.393 c 0,53.907 43.7,97.607 97.607,97.607 h 1562.036 c 53.907,0 97.607,-43.7 97.607,-97.607 V 1597.5 Z"
           fill="#185c37"
           id="path2-4" />
        <path
           d="M 1437.75,0 H 630.107 C 576.2,0 532.5,43.7 532.5,97.607 V 532.5 L 1437.75,1065 1917,1224.75 2289.75,1065 V 532.5 Z"
           fill="#21a366"
           id="path4-6" />
        <path
           d="m 532.5,532.5 h 905.25 V 1065 H 532.5 Z"
           fill="#107c41"
           id="path6-4" />
        <path
           d="M 1180.393,426 H 532.5 v 1331.25 h 647.893 c 53.834,-0.175 97.432,-43.773 97.607,-97.607 V 523.607 c -0.175,-53.834 -43.773,-97.432 -97.607,-97.607 z"
           opacity="0.1"
           id="path8-0" />
        <path
           d="M 1127.143,479.25 H 532.5 V 1810.5 h 594.643 c 53.834,-0.175 97.432,-43.773 97.607,-97.607 V 576.857 c -0.175,-53.834 -43.773,-97.432 -97.607,-97.607 z"
           opacity="0.2"
           id="path10-3" />
        <path
           d="M 1127.143,479.25 H 532.5 V 1704 h 594.643 c 53.834,-0.175 97.432,-43.773 97.607,-97.607 V 576.857 c -0.175,-53.834 -43.773,-97.432 -97.607,-97.607 z"
           opacity="0.2"
           id="path12-1" />
        <path
           d="M 1073.893,479.25 H 532.5 V 1704 h 541.393 c 53.834,-0.175 97.432,-43.773 97.607,-97.607 V 576.857 c -0.175,-53.834 -43.773,-97.432 -97.607,-97.607 z"
           opacity="0.2"
           id="path14-3" />
        <path
           d="m 97.607,479.25 h 976.285 c 53.907,0 97.607,43.7 97.607,97.607 v 976.285 c 0,53.907 -43.7,97.607 -97.607,97.607 H 97.607 C 43.7,1650.75 0,1607.05 0,1553.143 V 576.857 C 0,522.95 43.7,479.25 97.607,479.25 Z"
           fill="url(#a)"
           id="path23"
           style="fill:url(#a-2)" />
        <path
           d="M 302.3,1382.264 507.632,1064.095 319.5,747.683 h 151.336 l 102.666,202.35 c 9.479,19.223 15.975,33.494 19.49,42.919 h 1.331 a 798.667,798.667 0 0 1 21.3,-44.677 L 725.371,747.79 H 864.3 L 671.375,1062.338 869.2,1382.263 H 721.378 L 602.79,1160.158 a 186.298,186.298 0 0 1 -14.164,-29.66 h -1.757 a 140.458,140.458 0 0 1 -13.739,28.755 l -122.102,223.011 z"
           fill="#ffffff"
           id="path25-6" />
        <path
           d="M 2192.143,0 H 1437.75 v 532.5 h 852 V 97.607 C 2289.75,43.7 2246.05,0 2192.143,0 Z"
           fill="#33c481"
           id="path27-6" />
        <path
           d="m 1437.75,1065 h 852 v 532.5 h -852 z"
           fill="#107c41"
           id="path29" />
      </g>
      <g
         id="g42"
         transform="matrix(0.07900958,0,0,0.07893057,157.76818,-148.30247)">
        <path
           d="M 1160.9,982.3 1026.95,0 h -10.002 C 529.872,1.422 135.372,395.922 133.95,882.998 V 893 Z"
           fill="#ed6c47"
           id="path2-2" />
        <path
           d="m 1036.952,0 h -10.002 v 893 l 446.5,178.6 446.5,-178.6 V 882.998 C 1918.528,395.922 1524.028,1.422 1036.952,0 Z"
           fill="#ff8f6b"
           id="path4-7" />
        <path
           d="m 1919.95,893 v 9.823 c -1.398,487.185 -395.992,881.779 -883.177,883.177 h -19.646 C 529.942,1784.602 135.348,1390.008 133.95,902.823 V 893 Z"
           fill="#d35230"
           id="path6-8" />
        <path
           d="m 1071.6,438.909 v 952.831 c -0.222,33.109 -20.286,62.852 -50.901,75.458 a 79.127,79.127 0 0 1 -30.809,6.251 H 344.698 c -12.502,-14.288 -24.557,-29.469 -35.72,-44.65 A 875.768,875.768 0 0 1 133.95,902.822 V 883.176 A 873.128,873.128 0 0 1 277.723,401.849 c 9.823,-15.181 20.092,-30.362 31.255,-44.65 H 989.89 c 44.986,0.341 81.37,36.725 81.71,81.71 z"
           opacity="0.1"
           id="path8-9" />
        <path
           d="m 1026.95,483.56 v 952.831 a 79.086,79.086 0 0 1 -6.251,30.808 c -12.606,30.615 -42.35,50.679 -75.459,50.901 H 385.329 a 763.717,763.717 0 0 1 -40.632,-44.65 c -12.502,-14.288 -24.557,-29.469 -35.72,-44.65 A 875.77,875.77 0 0 1 133.949,902.823 V 883.177 A 873.128,873.128 0 0 1 277.722,401.85 H 945.24 c 44.986,0.34 81.37,36.724 81.71,81.71 z"
           opacity="0.2"
           id="path10-4" />
        <path
           d="m 1026.95,483.56 v 863.531 c -0.34,44.985 -36.724,81.369 -81.709,81.71 H 308.978 A 875.77,875.77 0 0 1 133.95,902.824 V 883.178 A 873.128,873.128 0 0 1 277.723,401.851 H 945.24 c 44.986,0.339 81.37,36.723 81.71,81.709 z"
           opacity="0.2"
           id="path12-7" />
        <path
           d="m 982.3,483.56 v 863.531 c -0.34,44.985 -36.724,81.369 -81.709,81.71 H 308.978 A 875.77,875.77 0 0 1 133.95,902.824 V 883.178 A 873.128,873.128 0 0 1 277.723,401.851 H 900.59 c 44.986,0.339 81.37,36.723 81.71,81.709 z"
           opacity="0.2"
           id="path14-7" />
        <path
           d="m 81.843,401.85 h 818.613 c 45.201,0 81.843,36.643 81.843,81.843 v 818.613 c 0,45.201 -36.643,81.844 -81.843,81.844 H 81.843 C 36.643,1384.15 0,1347.507 0,1302.307 V 483.693 c 0,-45.2 36.643,-81.843 81.843,-81.843 z"
           fill="url(#a)"
           id="path23-4"
           style="fill:url(#a-25)" />
        <path
           d="m 500.08,620.144 a 224.99,224.99 0 0 1 149.042,43.668 156.272,156.272 0 0 1 51.883,126.493 176.015,176.015 0 0 1 -25.584,94.524 170.963,170.963 0 0 1 -72.646,64.207 246.66,246.66 0 0 1 -109.259,22.95 H 389.973 v 192.441 H 283.929 V 620.144 Z M 389.884,888.848 h 91.265 a 118.501,118.501 0 0 0 80.683,-24.066 89.3,89.3 0 0 0 27.281,-70.413 c 0,-59.98 -34.857,-89.97 -104.57,-89.97 h -94.658 v 184.449 z"
           fill="#ffffff"
           id="path25-2" />
      </g>
      <g
         id="g126"
         transform="matrix(0.08284397,0,0,0.08276113,9.7756031,-148.30247)">
        <path
           d="m 913.57533,894.25 a 40.879,40.879 0 0 0 -19.503,-35.131 h -0.213 l -0.767,-0.426 -634.492,-375.585 a 86.175,86.175 0 0 0 -8.517,-5.067 85.17,85.17 0 0 0 -78.098,0 86.37,86.37 0 0 0 -8.517,5.067 l -634.49,375.585 -0.766,0.426 c -19.392,12.059 -25.337,37.556 -13.278,56.948 a 41.346,41.346 0 0 0 14.257,13.868 l 634.492,375.585 a 95.617,95.617 0 0 0 8.517,5.068 85.17,85.17 0 0 0 78.098,0 95.52,95.52 0 0 0 8.517,-5.068 l 634.492,-375.585 a 40.84,40.84 0 0 0 20.268,-35.685 z"
           fill="#0a2767"
           id="path2-9" />
        <path
           d="m -397.05467,643.477 h 416.38 v 381.674 h -416.38 z M 828.40933,255.5 V 80.908 c 1,-43.652 -33.552,-79.862 -77.203,-80.908 h -1080.51 c -43.652,1.046 -78.204,37.256 -77.204,80.908 V 255.5 l 638.75,170.333 z"
           fill="#0364b8"
           id="path4-9" />
        <path
           d="m -406.50767,255.5 h 425.833 v 383.25 h -425.833 z"
           fill="#0078d4"
           id="path6-6" />
        <path
           d="m 445.15933,255.5 h -425.834 v 383.25 l 425.834,383.25 h 383.25 V 638.75 Z"
           fill="#28a8ea"
           id="path8-1" />
        <path
           d="m 19.32533,638.75 h 425.833 V 1022 h -425.833 z"
           fill="#0078d4"
           id="path10-5" />
        <path
           d="m 19.32533,1022 h 425.833 v 383.25 h -425.833 z"
           fill="#0364b8"
           id="path12-5" />
        <path
           d="m -397.05467,1025.151 h 416.38 v 346.969 h -416.38 z"
           fill="#14447d"
           id="path14-4" />
        <path
           d="m 445.15933,1022 h 383.25 v 383.25 h -383.25 z"
           fill="#0078d4"
           id="path16-1" />
        <path
           d="m 894.07233,927.593 -0.809,0.426 -634.492,356.848 c -2.768,1.703 -5.578,3.321 -8.517,4.769 a 88.437,88.437 0 0 1 -34.407,8.517 l -34.663,-20.27 a 86.706,86.706 0 0 1 -8.517,-4.897 l -643.008,-366.983 h -0.298 l -21.036,-11.753 v 722.384 c 0.328,48.196 39.653,87.006 87.849,86.7 h 1230.914 c 0.724,0 1.363,-0.341 2.129,-0.341 a 107.79,107.79 0 0 0 29.808,-6.217 86.066,86.066 0 0 0 11.966,-6.217 c 2.853,-1.618 7.75,-5.152 7.75,-5.152 a 85.974,85.974 0 0 0 34.833,-68.772 V 894.25 a 38.323,38.323 0 0 1 -19.502,33.343 z"
           fill="url(#a)"
           id="path23-2"
           style="fill:url(#a-20)" />
        <path
           d="m 879.50933,891.397 v 44.287 l -663.448,456.791 -686.87,-486.174 a 0.426,0.426 0 0 0 -0.426,-0.426 l -63.023,-37.899 v -31.938 l 25.976,-0.426 54.932,31.512 1.277,0.426 4.684,2.981 c 0,0 645.563,368.346 647.267,369.197 l 24.698,14.478 c 2.129,-0.852 4.258,-1.703 6.813,-2.555 1.278,-0.852 640.879,-360.681 640.879,-360.681 z"
           fill="#0a2767"
           opacity="0.5"
           id="path25-0" />
        <path
           d="m 894.07233,927.593 -0.809,0.468 -634.492,356.848 c -2.768,1.703 -5.578,3.321 -8.517,4.769 a 88.96,88.96 0 0 1 -78.098,0 96.578,96.578 0 0 1 -8.517,-4.769 l -634.49,-356.848 -0.766,-0.468 a 38.326,38.326 0 0 1 -20.057,-33.343 v 722.384 c 0.305,48.188 39.616,87.004 87.803,86.7 h 1229.64 c 48.188,0.307 87.5,-38.509 87.807,-86.696 0,-10e-4 0,0 0,0 V 894.25 a 38.33,38.33 0 0 1 -19.504,33.343 z"
           fill="#1490df"
           id="path27-2" />
        <path
           d="m 268.01233,1279.629 -9.496,5.323 a 92.806,92.806 0 0 1 -8.517,4.812 88.173,88.173 0 0 1 -33.47,8.857 l 241.405,285.479 421.107,101.476 a 86.785,86.785 0 0 0 26.7,-33.343 z"
           opacity="0.1"
           id="path29-4" />
        <path
           d="m 311.02133,1255.442 -52.505,29.51 a 92.806,92.806 0 0 1 -8.517,4.812 88.173,88.173 0 0 1 -33.47,8.857 l 113.101,311.838 549.538,74.989 a 86.104,86.104 0 0 0 34.407,-68.815 v -9.326 z"
           opacity="0.05"
           id="path31" />
        <path
           d="m -402.67467,1703.333 h 1228.316 a 88.316,88.316 0 0 0 52.59,-17.033 l -697.089,-408.331 a 86.706,86.706 0 0 1 -8.517,-4.897 l -643.008,-366.984 h -0.298 l -20.993,-11.838 v 719.914 c -0.048,49.2 39.798,89.122 88.999,89.169 -0.001,0 -0.001,0 0,0 z"
           fill="#28a8ea"
           id="path33" />
        <path
           d="m 104.49233,418.722 v 908.303 c -0.076,31.846 -19.44,60.471 -48.971,72.392 a 73.382,73.382 0 0 1 -28.957,5.962 h -518.239 V 383.25 h 85.167 v -42.583 h 433.073 c 43.019,0.163 77.834,35.035 77.927,78.055 z"
           opacity="0.1"
           id="path35" />
        <path
           d="m 61.90933,461.305 v 908.302 a 69.36,69.36 0 0 1 -6.388,29.808 c -11.826,29.149 -40.083,48.273 -71.54,48.417 h -475.656 V 383.25 h 475.656 a 71.493,71.493 0 0 1 35.344,8.943 c 26.104,13.151 42.574,39.883 42.584,69.112 z"
           opacity="0.2"
           id="path37" />
        <path
           d="m 61.90933,461.305 v 823.136 c -0.208,43 -34.928,77.853 -77.927,78.225 h -475.657 V 383.25 h 475.656 a 71.493,71.493 0 0 1 35.344,8.943 c 26.104,13.151 42.574,39.883 42.584,69.112 z"
           opacity="0.2"
           id="path39" />
        <path
           d="m 19.32533,461.305 v 823.136 c -0.046,43.067 -34.861,78.015 -77.927,78.225 h -433.073 V 383.25 h 433.072 c 43.062,0.023 77.951,34.951 77.927,78.013 a 0.589,0.589 0 0 1 0.001,0.042 z"
           opacity="0.2"
           id="path41" />
        <path
           d="m -839.45267,383.25 h 780.723 c 43.109,0 78.055,34.947 78.055,78.055 v 780.723 c 0,43.109 -34.946,78.055 -78.055,78.055 h -780.723 c -43.109,0 -78.055,-34.947 -78.055,-78.055 V 461.305 c 0,-43.108 34.947,-78.055 78.055,-78.055 z"
           fill="url(#b)"
           id="path50"
           style="fill:url(#b)" />
        <path
           d="m -673.54767,710.631 a 227.05,227.05 0 0 1 89.17,-98.495 269.56,269.56 0 0 1 141.675,-35.515 250.91,250.91 0 0 1 131.114,33.683 225.014,225.014 0 0 1 86.742,94.109 303.751,303.751 0 0 1 30.405,138.396 320.567,320.567 0 0 1 -31.299,144.783 230.37,230.37 0 0 1 -89.425,97.388 260.864,260.864 0 0 1 -136.011,34.578 256.355,256.355 0 0 1 -134.01,-34.067 228.497,228.497 0 0 1 -87.892,-94.28 296.507,296.507 0 0 1 -30.745,-136.735 329.29,329.29 0 0 1 30.276,-143.845 z m 95.046,231.227 a 147.386,147.386 0 0 0 50.163,64.812 131.028,131.028 0 0 0 78.353,23.591 137.244,137.244 0 0 0 83.634,-24.358 141.156,141.156 0 0 0 48.715,-64.812 251.594,251.594 0 0 0 15.543,-90.404 275.198,275.198 0 0 0 -14.649,-91.554 144.775,144.775 0 0 0 -47.182,-67.537 129.58,129.58 0 0 0 -82.91,-25.55 135.202,135.202 0 0 0 -80.184,23.804 148.626,148.626 0 0 0 -51.1,65.365 259.759,259.759 0 0 0 -0.341,186.728 z"
           fill="#ffffff"
           id="path52" />
        <path
           d="m 445.15933,255.5 h 383.25 v 383.25 h -383.25 z"
           fill="#50d9ff"
           id="path54" />
      </g>
      <g
         id="g27"
         transform="matrix(0.60303894,0,0,0.60243591,-507.27462,-148.30247)">
        <path
           fill="#ff3500"
           d="M 0,0 H 240 V 234 H 0 Z"
           id="path2-8" />
        <path
           fill="url(#a)"
           d="M 10,10 H 230 V 224 H 10 Z"
           id="path9"
           style="fill:url(#a-1)" />
        <path
           d="m 203.7,140.1 c -4.8,-5.2 -15,-7.9 -29.4,-7.9 -8,0 -17.1,0.8 -27.2,2.5 -5.8,-5.4 -11.4,-11.9 -16.8,-19.3 -3.8,-5.3 -7.3,-10.8 -10.4,-16.3 5.1,-15.7 8.6,-30.8 8.6,-42.3 0,-8.6 -2.8,-22.8 -15.6,-22.8 -3.3,0 -6.9,2.1 -8.7,5.2 -5.4,9.3 -2.9,30.3 6.9,51.7 -3.4,10.3 -7.3,20.6 -12.1,32.3 -4,9.7 -8.8,19.6 -13.9,28.7 -27.8,11 -45.5,23.5 -47.3,33.5 -0.6,3.3 0.4,6.5 3.1,9.1 1.6,1.5 5,3.5 10,3.5 16,0 33.8,-23.4 47.1,-47.3 7.4,-2.6 15.2,-4.9 23.2,-7.1 8.7,-2.3 17,-4.1 24.9,-5.5 19.3,17.5 36.4,20.1 44.9,20.1 10.6,0 13.6,-4.4 14.7,-7.2 1.6,-4.1 0.2,-8.5 -2,-10.9 z M 107.1,40.8 c 1.3,-2.2 3.4,-3.6 5.8,-3.6 4.7,0 7.4,4.2 7.4,11.9 0,8.3 -2.6,21.8 -7.6,37.3 -9.3,-21.7 -9.4,-39 -5.6,-45.6 z M 40.9,186 c 1.6,-8.3 17.4,-19.5 41.6,-29.6 -13.5,23.1 -26.8,37.3 -35.2,37.3 -1.6,0 -3.2,-0.5 -4.4,-1.6 -1.7,-1.7 -2.4,-3.8 -2,-6.1 z m 102.3,-50.6 c -7.2,1.3 -14.9,3 -22.7,5.1 -6.9,1.8 -13.6,3.9 -20.1,6 3.8,-7.1 7.1,-14 9.6,-20.3 3.1,-7.5 6.1,-15.3 8.7,-23.1 2.8,4.8 5.8,9.5 9.1,14.1 4.9,6.9 10.1,13 15.4,18.2 z m 7,2 c 16.3,-3 30.6,-2.4 36.7,-1.1 6.3,1.3 9.6,5.1 8.5,10.7 -1.1,5.7 -7.9,8.4 -15.4,6.6 -12,-2.9 -21.9,-9.4 -29.8,-16.2 z"
           fill="url(#b)"
           id="path16-0"
           style="fill:url(#b-4)" />
      </g>
    </g>
  </g>
</svg>
